<svg xmlns="http://www.w3.org/2000/svg" width="98.637" height="98.637" viewBox="0 0 98.637 98.637">
  <g id="eye" transform="translate(0 0)">
    <rect id="eyebg" width="98.637" height="98.637" rx="49.318" transform="translate(0)" fill="#5979ff"/>
    <path id="EYE-2" data-name="EYE" d="M33.095,98.725c-12.646,0-24.114,6.919-32.577,18.157a2.62,2.62,0,0,0,0,3.128c8.462,11.252,19.931,18.17,32.577,18.17s24.114-6.919,32.577-18.157a2.62,2.62,0,0,0,0-3.128C57.209,105.644,45.741,98.725,33.095,98.725ZM34,132.344A13.921,13.921,0,1,1,46.987,119.36,13.93,13.93,0,0,1,34,132.344Zm-.42-6.418a7.5,7.5,0,1,1,7-7A7.484,7.484,0,0,1,33.582,125.926Z" transform="translate(16.029 -69.134)" fill="#fff"/>
  </g>
</svg>
