<svg xmlns="http://www.w3.org/2000/svg" width="98.637" height="98.637" viewBox="0 0 98.637 98.637">
  <g id="eye" transform="translate(0 0)">
    <rect id="eyebg" width="98.637" height="98.637" rx="49.318" transform="translate(0 0)" fill="#5979ff"/>
    <path id="GITHUB" d="M61.75,23.407A32.951,32.951,0,0,0,49.706,11.363,32.37,32.37,0,0,0,33.094,6.924a32.373,32.373,0,0,0-16.612,4.439A32.947,32.947,0,0,0,4.439,23.407,32.372,32.372,0,0,0,0,40.018,32.162,32.162,0,0,0,6.313,59.473a32.412,32.412,0,0,0,16.31,11.958,1.929,1.929,0,0,0,1.723-.3,1.685,1.685,0,0,0,.56-1.292q0-.129-.022-2.327t-.022-3.834l-.991.171A12.643,12.643,0,0,1,21.48,64a18.223,18.223,0,0,1-2.995-.3A6.692,6.692,0,0,1,15.6,62.4a5.468,5.468,0,0,1-1.9-2.65l-.431-.992a10.768,10.768,0,0,0-1.357-2.2,5.2,5.2,0,0,0-1.874-1.637l-.3-.216a3.164,3.164,0,0,1-.56-.518,2.364,2.364,0,0,1-.388-.6q-.129-.3.215-.5a2.8,2.8,0,0,1,1.25-.193l.862.129a6.29,6.29,0,0,1,2.133,1.034,6.955,6.955,0,0,1,2.09,2.24A7.6,7.6,0,0,0,17.732,59a5.073,5.073,0,0,0,2.822.926,12.254,12.254,0,0,0,2.456-.215,8.571,8.571,0,0,0,1.939-.647,6.982,6.982,0,0,1,2.111-4.439,29.506,29.506,0,0,1-4.417-.776,17.586,17.586,0,0,1-4.05-1.681,11.6,11.6,0,0,1-3.469-2.887,13.874,13.874,0,0,1-2.262-4.525,21.516,21.516,0,0,1-.883-6.464,12.569,12.569,0,0,1,3.4-8.877,11.584,11.584,0,0,1,.3-8.79,6.038,6.038,0,0,1,3.706.582,25.909,25.909,0,0,1,3.6,1.659q1.142.688,1.832,1.163a31.121,31.121,0,0,1,16.548,0L43.006,23a23.191,23.191,0,0,1,3.964-1.9,5.647,5.647,0,0,1,3.492-.474,11.472,11.472,0,0,1,.344,8.79,12.571,12.571,0,0,1,3.4,8.877,21.757,21.757,0,0,1-.883,6.485A13.335,13.335,0,0,1,51.044,49.3a12.047,12.047,0,0,1-3.491,2.866A17.62,17.62,0,0,1,43.5,53.849a29.474,29.474,0,0,1-4.417.777q2.24,1.938,2.24,6.118v9.092a1.717,1.717,0,0,0,.539,1.292,1.872,1.872,0,0,0,1.7.3A32.408,32.408,0,0,0,59.877,59.472a32.169,32.169,0,0,0,6.313-19.456A32.4,32.4,0,0,0,61.75,23.407Z" transform="translate(16.029 9.886)" fill="#fff"/>
  </g>
</svg>
