<svg xmlns="http://www.w3.org/2000/svg" width="65.098" height="74.461" viewBox="0 0 65.098 74.461">
  <g id="Group_48" data-name="Group 48" transform="translate(-291.137 -1789.21)">
    <path id="html-5" d="M27.3,2.322l4.553,58.242a2.154,2.154,0,0,0,1.5,1.886l23.956,7.6a2.155,2.155,0,0,0,1.3,0l23.956-7.6a2.154,2.154,0,0,0,1.5-1.886L88.614,2.322A2.154,2.154,0,0,0,86.466,0L29.449.942C28.193.942,27.2,1.07,27.3,2.322Z" transform="translate(265.729 1791.368)" fill="#fff"/>
    <path id="html-5-2" data-name="html-5" d="M27.3,2.465,32.134,64.29a2.287,2.287,0,0,0,1.589,2l25.43,8.062a2.288,2.288,0,0,0,1.382,0l25.43-8.062a2.287,2.287,0,0,0,1.589-2L92.386,2.465A2.287,2.287,0,0,0,90.106,0H29.582A2.287,2.287,0,0,0,27.3,2.465ZM79.993,21.647H48.5l.951,8.765h29.86L77.355,55.4,59.844,60.952,42.333,55.4l-1.02-13.055H50.5v6.4l9.586,2.573,9.528-2.573.739-10.205H41.016L39.068,13.621H80.62Z" transform="translate(263.842 1789.21)" fill="#001c8d"/>
  </g>
</svg>
