<svg xmlns="http://www.w3.org/2000/svg" width="74.461" height="74.461" viewBox="0 0 74.461 74.461">
  <g id="js" transform="translate(0)">
    <path id="Path_159" data-name="Path 159" d="M0,74.461H74.461V0H0Z" fill="#001c8d"/>
    <g id="Group_47" data-name="Group 47" transform="translate(19.257 25.676)">
      <path id="Path_160" data-name="Path 160" d="M329.347,220.2a11.568,11.568,0,0,1-11.554-11.554,1.284,1.284,0,0,1,2.568,0,8.987,8.987,0,1,0,8.987-8.987A11.554,11.554,0,1,1,340.9,188.107a1.284,1.284,0,0,1-2.568,0,8.987,8.987,0,1,0-8.987,8.987,11.554,11.554,0,0,1,0,23.109" transform="translate(-290.833 -176.553)" fill="#fafafa"/>
      <path id="Path_161" data-name="Path 161" d="M143.968,220.2a11.568,11.568,0,0,1-11.554-11.554,1.284,1.284,0,0,1,2.568,0,8.987,8.987,0,1,0,17.973,0V177.835a1.284,1.284,0,1,1,2.568,0v30.811A11.568,11.568,0,0,1,143.968,220.2" transform="translate(-132.414 -176.551)" fill="#fafafa"/>
    </g>
  </g>
</svg>
