<svg xmlns="http://www.w3.org/2000/svg" width="74.409" height="74.409" viewBox="0 0 74.409 74.409">
  <g id="sass" transform="translate(0)">
    <path id="Path_162" data-name="Path 162" d="M74.409,37.2q0,1.724-.155,3.408-.118,1.333-.334,2.633a37.231,37.231,0,1,1,.489-6.041Z" transform="translate(0)" fill="#001c8d"/>
    <path id="Path_163" data-name="Path 163" d="M85.363,79.756c-1.128.427-1.083.434-1.68-.653a9.438,9.438,0,0,1-1.2-4.425,10.257,10.257,0,0,1,.811-3.862c.374-.985-.112-1.333-.966-1.423a9.3,9.3,0,0,0-1.885.006c-1.619.166-1.778.305-2.208,1.877a16,16,0,0,1-.882,2.758c-1.045,2.179-2.232,4.278-3.45,6.361a5.453,5.453,0,0,1-.708,1.1A8.249,8.249,0,0,1,71.9,77.184a10.936,10.936,0,0,1,.9-4.305.678.678,0,0,0-.375-.96,1.627,1.627,0,0,0-.576-.188,8.771,8.771,0,0,0-3.087.214,1.073,1.073,0,0,0-.855.893,13.628,13.628,0,0,1-.922,2.908q-1.731,3.886-3.453,7.778c-1,2.252-1.989,4.51-3.177,6.673-.084.153-.153.419-.363.366s-.138-.314-.147-.494a12.805,12.805,0,0,1,.576-3.71c.469-1.927.982-3.845,1.481-5.766a.984.984,0,0,0-.554-1.186,1.687,1.687,0,0,0-2.024.134,12.392,12.392,0,0,0,.106-2.159c-.076-1.534-.787-2.531-2.024-2.762a4.165,4.165,0,0,0-2.566.477,12.957,12.957,0,0,0-4.67,3.866,1.692,1.692,0,0,1-.515.481Q46.073,81.4,42.5,83.359a.434.434,0,0,1-.618-.1,33.292,33.292,0,0,0-3.971-3.424,44.068,44.068,0,0,1-5.584-4.75,9.182,9.182,0,0,1-2.188-3.634,8.331,8.331,0,0,1,.935-6.475,19.251,19.251,0,0,1,5.373-5.921,51.777,51.777,0,0,1,11.02-6.431,31.113,31.113,0,0,1,13.781-2.972A12.138,12.138,0,0,1,66.738,51a4.075,4.075,0,0,1,2.238,3.037,7.429,7.429,0,0,1-.864,4.626,17.92,17.92,0,0,1-7.321,7.316,24.333,24.333,0,0,1-8.255,2.937,15.24,15.24,0,0,1-4.867.193A7.519,7.519,0,0,1,42.8,66.7a.455.455,0,0,0-.585-.172c-.257.125-.237.352-.213.571a1.977,1.977,0,0,0,.112.445,5.244,5.244,0,0,0,1.73,2.225,10.447,10.447,0,0,0,6.676,2.1,27.679,27.679,0,0,0,7.014-.806A21.225,21.225,0,0,0,70.3,62.877a13.982,13.982,0,0,0,3-8.8A7.7,7.7,0,0,0,71,48.626,12.89,12.89,0,0,0,64.517,45.4a24.109,24.109,0,0,0-8.155-.355,33.647,33.647,0,0,0-6.994,1.556,62.406,62.406,0,0,0-10.047,4.458,43.094,43.094,0,0,0-9.116,6.556,21.7,21.7,0,0,0-5.644,8.074,7.4,7.4,0,0,0-.522,4.24,11.963,11.963,0,0,0,2.594,5.023,33.637,33.637,0,0,0,6.5,5.7c1.891,1.358,3.869,2.594,5.685,4.053.515.413.512.413-.094.73-.708.369-1.423.724-2.118,1.118a30.966,30.966,0,0,0-7.728,5.693A8.75,8.75,0,0,0,26.7,96.217a37.323,37.323,0,0,0,6.366,7.263A12.788,12.788,0,0,0,44.555,91.74a13.351,13.351,0,0,0-.541-5.282c-.093-.3-.437-.606-.3-.873.126-.246.506-.371.785-.531,1.127-.655,2.257-1.3,3.417-1.966a1,1,0,0,1-.09.553,16.021,16.021,0,0,0-.623,7.436,10.355,10.355,0,0,0,1.834,4.373,2.813,2.813,0,0,0,4.243-.036,20.249,20.249,0,0,0,2.076-3.79c.334-.717.641-1.446.96-2.17a24.19,24.19,0,0,0-.024,2.569,5,5,0,0,0,.6,2.4,1.748,1.748,0,0,0,2.418.671,5.367,5.367,0,0,0,2.129-2.216,103.094,103.094,0,0,0,5.9-11.858c.358-.87.726-1.739,1.131-2.706.062.317.1.512.141.706a18.511,18.511,0,0,0,2,5.534.784.784,0,0,1-.077.985c-.887,1.207-1.859,2.343-2.817,3.491A30.045,30.045,0,0,0,65.37,91.98a1.308,1.308,0,0,0,.756,2.153,4.342,4.342,0,0,0,.963.082,10.136,10.136,0,0,0,4.94-1.42,5.7,5.7,0,0,0,3.216-5.33,8.436,8.436,0,0,0-.774-3.2.54.54,0,0,1,.044-.6,59.188,59.188,0,0,0,3.836-6.373,5.543,5.543,0,0,1,.68-1.2c.044.153.079.249.1.348a17.233,17.233,0,0,0,1.792,5.23c.255.445.128.671-.225.969a13.94,13.94,0,0,0-3.04,3.611,6.806,6.806,0,0,0-1.049,3.473,1.856,1.856,0,0,0,2.436,1.892,10.839,10.839,0,0,0,3.918-1.783c2.574-1.884,3.329-3.872,2.522-6.647-.316-1.092-.31-1.074.785-1.4a15.937,15.937,0,0,1,7.266-.355q.415.068.82.156.214-1.3.334-2.633A15.486,15.486,0,0,0,85.363,79.756Zm-50.6,19.536a5.187,5.187,0,0,1-2.153.293,1.657,1.657,0,0,1-1.561-1.7,6.1,6.1,0,0,1,.758-3.125,12.774,12.774,0,0,1,3.929-4.2,45.134,45.134,0,0,1,4.709-3.118c.49-.292.5-.288.61.3a8.652,8.652,0,0,1,.228,2.184A10.092,10.092,0,0,1,34.762,99.292Zm22.289-20.62a25.206,25.206,0,0,1-1.421,4.987c-.817,2.214-1.613,4.439-2.641,6.568a5.161,5.161,0,0,1-.864,1.377c-.36.378-.679.334-.928-.128a6.569,6.569,0,0,1-.5-2.635,15.177,15.177,0,0,1,3.271-9.332,4.091,4.091,0,0,1,2.241-1.6C56.854,77.742,57.153,78,57.051,78.672ZM71.2,89.5a6.821,6.821,0,0,1-2.914,2.686c-.131.065-.3.181-.418.027s.068-.24.15-.331c1.216-1.329,2.418-2.668,3.5-4.109.017-.023.058-.026.15-.065A3.583,3.583,0,0,1,71.2,89.5Zm8.4-.052c-.181.085-.39.244-.566.108-.194-.15-.117-.416-.058-.62a10.863,10.863,0,0,1,1.162-2.644,9.779,9.779,0,0,1,1.553-1.874c.237-.228.343-.2.424.128a4.456,4.456,0,0,1,.1,1.013A4.092,4.092,0,0,1,79.6,89.446Z" transform="translate(-20.434 -38.34)" fill="#fafafa"/>
  </g>
</svg>
