<svg xmlns="http://www.w3.org/2000/svg" width="362.686" height="364.109" viewBox="0 0 362.686 364.109">
  <g id="gears" transform="translate(-570.811 -1538.413)" opacity="0.07">
    <path id="floating-cogs" d="M0,88.7l4.654-4.455a48.834,48.834,0,0,0,7.384,3.9L10.83,98.831l2.68.908,5.088-9.39a46.891,46.891,0,0,0,8.18,1.335l2.035,10.558h2.821l2.035-10.558a47.153,47.153,0,0,0,8.18-1.335l5.088,9.379,2.68-.9L48.407,88.148a47.452,47.452,0,0,0,7.384-3.9l7.636,7.3L65.7,89.827l-4.332-9.786a49.564,49.564,0,0,0,5.843-6.051l9.45,4.486,1.662-2.358L71.276,68.21a51.925,51.925,0,0,0,3.768-7.647L85.36,61.815l.876-2.775L77.17,53.771a51.8,51.8,0,0,0,1.29-8.472l10.2-2.107V40.271l-10.2-2.107a52.087,52.087,0,0,0-1.29-8.472l9.057-5.269-.866-2.775L75.044,22.9a50.456,50.456,0,0,0-3.768-7.647l7.052-7.908L76.666,4.987l-9.45,4.486a49.562,49.562,0,0,0-5.843-6.051L62.884,0H65.06L63.8,2.838A51.627,51.627,0,0,1,67.78,6.959L77.351,2.41,80.9,7.47l-7.133,8.012a50.309,50.309,0,0,1,2.559,5.2L86.78,19.416l1.864,5.947L79.466,30.7a53.85,53.85,0,0,1,.876,5.759L90.669,38.6v6.26L80.343,47a53.776,53.776,0,0,1-.876,5.759L88.644,58.1,86.78,64.048,76.323,62.785a52.474,52.474,0,0,1-2.559,5.2L80.9,75.993l-3.546,5.06L67.78,76.5A51.628,51.628,0,0,1,63.8,80.626l4.392,9.911-4.886,3.672L55.57,86.823a47.3,47.3,0,0,1-5.017,2.65L51.772,100.3l-5.742,1.93-5.158-9.5a48.744,48.744,0,0,1-5.561.908l-2.065,10.694H27.2L25.136,93.635a48.67,48.67,0,0,1-5.561-.908l-5.158,9.5L8.674,100.3,9.893,89.473a49.348,49.348,0,0,1-5.017-2.65L0,91.476ZM0,54.982v-26.5l8.442,5.05a24.756,24.756,0,0,0,0,16.4ZM0,14.126A39.763,39.763,0,0,1,26.193.209V18.1a22.988,22.988,0,0,0-13.721,8.2L0,18.842V14.126ZM0,69.337V64.622l12.472-7.46a22.988,22.988,0,0,0,13.721,8.2V83.255A39.763,39.763,0,0,1,0,69.337ZM34.253,83.255V65.362a22.988,22.988,0,0,0,13.721-8.2l14.96,8.951A40,40,0,0,1,34.253,83.255ZM66.974,58.883,52,49.932a24.756,24.756,0,0,0,0-16.4l14.97-8.951a43.252,43.252,0,0,1,0,34.3ZM62.935,17.36l-14.96,8.931A22.987,22.987,0,0,0,34.253,18.1V.209A40,40,0,0,1,62.935,17.35v.01ZM0,52.561l6.024-3.6a26.986,26.986,0,0,1,0-14.481L0,30.881ZM.5,16.724l11.565,6.917A25.073,25.073,0,0,1,24.178,16.4V2.577A37.978,37.978,0,0,0,.5,16.734v-.01Zm0,49.995A37.979,37.979,0,0,0,24.179,80.886V67.063a24.972,24.972,0,0,1-12.109-7.251L.5,66.729ZM36.268,80.886A37.978,37.978,0,0,0,59.942,66.729L48.377,59.812a24.972,24.972,0,0,1-12.109,7.251Zm29.719-25a40.867,40.867,0,0,0,0-28.315L54.422,34.491a26.986,26.986,0,0,1,0,14.481L66,55.889ZM59.942,16.734A37.978,37.978,0,0,0,36.268,2.577V16.4a24.972,24.972,0,0,1,12.109,7.251Zm-29.719,39.6a14.362,14.362,0,0,1-14.1-14.606,14.362,14.362,0,0,1,14.1-14.606,14.362,14.362,0,0,1,14.1,14.606A14.362,14.362,0,0,1,30.223,56.338Zm0-2.087a12.31,12.31,0,0,0,12.089-12.52,12.31,12.31,0,0,0-12.089-12.52,12.31,12.31,0,0,0-12.089,12.52A12.31,12.31,0,0,0,30.223,54.251Zm0-2.087a10.439,10.439,0,0,1,0-20.866,10.439,10.439,0,0,1,0,20.866Zm0-2.087a8.351,8.351,0,1,0-8.059-8.346A8.207,8.207,0,0,0,30.223,50.078ZM108.269,97.2l-1.632-6.228,5.712-2.149,2.629,5.884a32.281,32.281,0,0,1,3.355-.605l.524-6.468h6.085l.524,6.468a32.281,32.281,0,0,1,3.355.605l2.619-5.884,5.722,2.149L135.53,97.2a29.575,29.575,0,0,1,2.972,1.763l4.382-4.57,4.654,4.048-3.556,5.216a33.617,33.617,0,0,1,2.247,2.733l5.561-2.713,3.042,5.456-5.017,3.61a32.9,32.9,0,0,1,1.209,3.391l6.065-.563,1.058,6.2-5.883,1.607a31.177,31.177,0,0,1,0,3.631l5.883,1.607-1.058,6.2-6.065-.563a32.9,32.9,0,0,1-1.209,3.391l5.017,3.61L151.79,146.7l-5.561-2.713a30.638,30.638,0,0,1-2.247,2.733l3.556,5.216-4.654,4.058-4.382-4.57a30.163,30.163,0,0,1-2.972,1.763l1.632,6.228-5.712,2.149-2.629-5.884a32.272,32.272,0,0,1-3.355.605l-.524,6.468h-6.085l-.524-6.468a29.547,29.547,0,0,1-3.355-.605l-2.619,5.884-5.722-2.149,1.632-6.228a28.759,28.759,0,0,1-2.972-1.763l-4.382,4.57-4.654-4.048,3.556-5.216A33.639,33.639,0,0,1,97.57,144l-5.561,2.713-3.042-5.456,5.017-3.61a31.652,31.652,0,0,1-1.209-3.391l-6.065.563-1.058-6.2,5.883-1.607a32.714,32.714,0,0,1,0-3.631l-5.883-1.607,1.058-6.2,6.065.563a32.9,32.9,0,0,1,1.209-3.391l-5.017-3.61,3.042-5.446,5.561,2.713a30.646,30.646,0,0,1,2.247-2.733L96.26,98.455l4.654-4.058,4.382,4.57A30.176,30.176,0,0,1,108.269,97.2Zm15.313-1.169-.5-6.312h-2.357l-.5,6.312a27.389,27.389,0,0,0-6.367,1.148l-2.559-5.738-2.216.835,1.612,6.1a27.955,27.955,0,0,0-5.6,3.349l-4.3-4.486-1.8,1.565,3.526,5.164a29.139,29.139,0,0,0-4.151,5.133l-5.541-2.7-1.169,2.107,5.017,3.61a29.673,29.673,0,0,0-2.216,6.291l-6.075-.574-.4,2.4,5.9,1.607a30.569,30.569,0,0,0,0,6.7l-5.914,1.617.4,2.4,6.095-.584a29.673,29.673,0,0,0,2.216,6.291l-5.037,3.62L92.815,144l5.531-2.7a29.14,29.14,0,0,0,4.151,5.133L98.97,151.6l1.8,1.565,4.3-4.5a27.955,27.955,0,0,0,5.6,3.349l-1.612,6.1,2.216.835,2.559-5.738a27.388,27.388,0,0,0,6.367,1.148l.5,6.312h2.357l.5-6.312a27.387,27.387,0,0,0,6.367-1.148l2.559,5.738,2.216-.835-1.612-6.1a27.952,27.952,0,0,0,5.6-3.349l4.3,4.486,1.8-1.565-3.526-5.164a29.14,29.14,0,0,0,4.151-5.133l5.541,2.7,1.169-2.107-5.017-3.61a29.672,29.672,0,0,0,2.216-6.291l6.075.574.4-2.4-5.9-1.607a30.57,30.57,0,0,0,0-6.7l5.914-1.617-.4-2.4-6.095.584a29.676,29.676,0,0,0-2.216-6.291l5.027-3.61-1.179-2.107-5.531,2.7a29.14,29.14,0,0,0-4.151-5.133l3.526-5.175-1.8-1.565-4.3,4.5a27.957,27.957,0,0,0-5.6-3.349l1.612-6.1-2.216-.835-2.559,5.738a27.387,27.387,0,0,0-6.367-1.148ZM121.9,133.541a8.351,8.351,0,1,1,8.059-8.346A8.207,8.207,0,0,1,121.9,133.541Zm0-2.087a6.264,6.264,0,1,0-6.045-6.26,6.155,6.155,0,0,0,6.045,6.26Zm0-18.779a5.22,5.22,0,1,1,5.037-5.216A5.129,5.129,0,0,1,121.9,112.676Zm8.553,3.662a5.352,5.352,0,0,1-.126-7.381,4.919,4.919,0,0,1,7.128-.13,5.352,5.352,0,0,1,.126,7.381,4.919,4.919,0,0,1-7.128.13Zm3.536,8.858a5.04,5.04,0,1,1,5.037,5.216A5.129,5.129,0,0,1,133.989,125.2Zm-3.536,8.858a4.919,4.919,0,0,1,7.128-.13,5.352,5.352,0,0,1,.126,7.381,4.919,4.919,0,0,1-7.128.13A5.352,5.352,0,0,1,130.453,134.053Zm-8.553,3.662a5.22,5.22,0,1,1-5.037,5.216A5.129,5.129,0,0,1,121.9,137.715Zm-8.553-3.662a5.352,5.352,0,0,1,.126,7.381,4.919,4.919,0,0,1-7.128.13,5.352,5.352,0,0,1-.126-7.381A4.919,4.919,0,0,1,113.347,134.053ZM109.81,125.2a5.04,5.04,0,1,1-5.037-5.216,5.129,5.129,0,0,1,5.037,5.216Zm3.536-8.858a4.919,4.919,0,0,1-7.128.13,5.352,5.352,0,0,1-.126-7.381,4.919,4.919,0,0,1,7.128-.13,5.352,5.352,0,0,1,.126,7.381Zm8.553-5.749a3.132,3.132,0,1,0-3.022-3.13,3.077,3.077,0,0,0,3.022,3.13Zm9.974,4.278a2.95,2.95,0,0,0,4.272.156,3.209,3.209,0,0,0,.151-4.424,2.95,2.95,0,0,0-4.272-.156A3.209,3.209,0,0,0,131.873,114.866ZM136,125.2a3.024,3.024,0,1,0,3.022-3.13A3.077,3.077,0,0,0,136,125.2Zm-4.13,10.329a3.209,3.209,0,0,0-.151,4.424,2.95,2.95,0,0,0,4.272.156,3.209,3.209,0,0,0,.151-4.424A2.95,2.95,0,0,0,131.873,135.524ZM121.9,139.8a3.132,3.132,0,1,0,3.022,3.13,3.078,3.078,0,0,0-3.022-3.13Zm-9.974-4.277a2.95,2.95,0,0,0-4.272-.157,3.209,3.209,0,0,0-.151,4.424,2.95,2.95,0,0,0,4.272.156A3.209,3.209,0,0,0,111.926,135.524ZM107.8,125.2a3.024,3.024,0,1,0-3.022,3.13A3.077,3.077,0,0,0,107.8,125.2Zm4.131-10.329a3.209,3.209,0,0,0,.151-4.424,2.95,2.95,0,0,0-4.272-.157,3.209,3.209,0,0,0-.151,4.424,2.95,2.95,0,0,0,4.272.156Zm130.382-7.251v.01c.876.073,1.753.177,2.619.313l1.511-4.079,1.954-3.8,3.919,1.012v4.309l-.5,4.309c.836.292,1.652.616,2.458.97l2.438-3.579,2.781-3.2,3.566,1.961-1.007,4.173-1.5,4.058c.735.49,1.461,1.012,2.166,1.554l3.214-2.879,3.445-2.4,2.992,2.786-1.944,3.808-2.4,3.547c.6.668,1.209,1.356,1.773,2.076l3.707-2.024L277.377,119l2.307,3.422-2.72,3.245-3.143,2.942c.433.793.846,1.6,1.229,2.42l4.07-1.043,4.13-.522,1.441,3.891-3.4,2.473-3.728,2.066c.232.876.443,1.753.625,2.65l4.2.01,4.131.522.484,4.142-3.879,1.544-4.09,1.064c.03.908.03,1.826,0,2.733l4.09,1.064,3.879,1.544-.484,4.142-4.131.532h-4.2c-.181.9-.393,1.784-.635,2.65l3.728,2.066,3.405,2.473-1.441,3.891-4.13-.522-4.07-1.043c-.383.824-.8,1.628-1.229,2.42l3.153,2.942,2.72,3.245-2.317,3.422L273.5,177.84l-3.707-2.034q-.85,1.076-1.773,2.087l2.4,3.558,1.944,3.8-2.992,2.786-3.445-2.4-3.214-2.879q-1.058.808-2.166,1.544l1.491,4.069,1.007,4.173-3.556,1.961-2.781-3.2-2.438-3.579c-.806.344-1.622.678-2.468.97l.5,4.309v4.309l-3.909,1.012-1.954-3.808-1.511-4.069c-.866.136-1.743.24-2.619.323l-.524,4.33-1.007,4.173h-4.03L235.74,195.1l-.524-4.34q-1.315-.109-2.619-.313l-1.511,4.079-1.954,3.8-3.919-1.012V193l.5-4.309c-.836-.292-1.652-.616-2.458-.97L220.82,191.3l-2.781,3.2-3.566-1.961,1.007-4.173,1.5-4.058c-.745-.49-1.461-1.012-2.166-1.555l-3.214,2.88-3.445,2.4-2.992-2.786,1.944-3.808,2.4-3.547c-.615-.678-1.209-1.367-1.773-2.076l-3.707,2.024-3.879,1.544-2.307-3.422,2.72-3.245,3.143-2.942c-.433-.793-.846-1.6-1.229-2.42L198.4,168.4l-4.13.522-1.441-3.891,3.4-2.473,3.728-2.066c-.232-.876-.443-1.753-.625-2.65l-4.2-.01-4.13-.522-.484-4.142,3.879-1.544,4.09-1.064c-.03-.908-.03-1.826,0-2.733l-4.09-1.064-3.879-1.544.484-4.142,4.13-.532h4.2c.181-.9.393-1.784.635-2.65l-3.728-2.066-3.405-2.473,1.441-3.891,4.13.522,4.07,1.043c.383-.824.8-1.628,1.229-2.42l-3.153-2.942-2.72-3.245L200.147,119l3.879,1.544,3.707,2.034q.85-1.076,1.773-2.087l-2.4-3.558-1.944-3.8,2.992-2.786,3.445,2.4,3.214,2.879c.705-.543,1.42-1.064,2.166-1.544l-1.491-4.069-1.007-4.173,3.556-1.961,2.781,3.2,2.438,3.578c.806-.344,1.622-.678,2.468-.97l-.5-4.309v-4.309l3.909-1.012,1.954,3.808,1.511,4.069c.866-.136,1.743-.24,2.619-.323l.524-4.33,1.007-4.173h4.03l1.007,4.173ZM227.9,111.163a37.747,37.747,0,0,0-5.339,2.087l-3.526-5.185-1.39-1.6-.887.49.5,2.087,2.176,5.915a38.367,38.367,0,0,0-4.695,3.359l-4.644-4.173-1.723-1.2-.756.7.977,1.9,3.5,5.2a39.467,39.467,0,0,0-3.818,4.465l-5.41-2.963-1.934-.772-.574.855,1.36,1.628,4.554,4.267a40.037,40.037,0,0,0-2.66,5.216l-5.934-1.513-2.055-.261-.363.981,1.7,1.231,5.4,2.994a40.532,40.532,0,0,0-1.36,5.738l-6.125.01-2.055.261-.121,1.043,1.934.762,5.944,1.565a41.65,41.65,0,0,0,0,5.895l-5.944,1.555-1.934.772.121,1.033,2.055.261,6.125.01a41.579,41.579,0,0,0,1.36,5.738l-5.4,2.994-1.713,1.231.373.981,2.055-.261,5.944-1.523a40.051,40.051,0,0,0,2.65,5.227l-4.554,4.278-1.36,1.617.574.855,1.934-.772,5.41-2.963a39.458,39.458,0,0,0,3.828,4.465l-3.506,5.2-.977,1.9.756.7,1.713-1.2,4.654-4.173a38.363,38.363,0,0,0,4.695,3.359l-2.186,5.915-.5,2.087.9.49,1.39-1.6,3.526-5.2a35.381,35.381,0,0,0,5.339,2.087l-.735,6.3v2.149l.977.25.977-1.9,2.216-5.926a36.1,36.1,0,0,0,5.662.709l.756,6.3.5,2.087h1.007l.5-2.087.756-6.3a37.227,37.227,0,0,0,5.662-.709l2.216,5.926.977,1.9.977-.25V193.51l-.735-6.291a37.75,37.75,0,0,0,5.339-2.087l3.526,5.185,1.39,1.6.887-.49-.5-2.087-2.176-5.915a38.364,38.364,0,0,0,4.695-3.359l4.644,4.173,1.723,1.2.756-.7-.977-1.9-3.5-5.2a39.476,39.476,0,0,0,3.818-4.465l5.41,2.963,1.934.772.574-.855-1.36-1.628-4.554-4.267a41.308,41.308,0,0,0,2.66-5.216l5.934,1.513,2.055.261.363-.981-1.7-1.231-5.4-2.994a40.172,40.172,0,0,0,1.36-5.738l6.125-.01,2.055-.261.121-1.043-1.934-.762-5.944-1.565a41.109,41.109,0,0,0,0-5.895l5.944-1.555,1.934-.772-.121-1.033-2.055-.261-6.125-.01a40.171,40.171,0,0,0-1.36-5.738l5.4-2.994,1.713-1.231-.373-.981-2.055.261-5.944,1.523a40.054,40.054,0,0,0-2.65-5.227l4.554-4.277,1.36-1.617-.574-.855-1.934.772-5.41,2.963a39.473,39.473,0,0,0-3.828-4.465l3.506-5.2.977-1.9-.756-.7-1.713,1.2-4.654,4.173a38.371,38.371,0,0,0-4.695-3.359l2.186-5.915.5-2.087-.9-.49-1.39,1.6-3.526,5.2a35.393,35.393,0,0,0-5.339-2.087l.735-6.3v-2.149l-.977-.25-.977,1.9-2.216,5.926a36.1,36.1,0,0,0-5.662-.709l-.756-6.3-.5-2.087h-1.007l-.5,2.087-.756,6.3a37.216,37.216,0,0,0-5.662.709l-2.216-5.926-.977-1.9-.977.25v2.149l.735,6.291Zm-5.893,5.895a34.15,34.15,0,0,1,15.746-4.382v6.26a28.245,28.245,0,0,0-12.724,3.537l-3.022-5.425Zm2.821.866,1.007,1.815a30.194,30.194,0,0,1,9.9-2.744v-2.1a32.155,32.155,0,0,0-10.91,3.026Zm-4.564.177,3.022,5.425a29.881,29.881,0,0,0-9.309,9.64l-5.239-3.13A36.1,36.1,0,0,1,220.266,118.1Zm-.675,2.963a34.057,34.057,0,0,0-7.989,8.273l1.753,1.043a32,32,0,0,1,7.254-7.512l-1.017-1.8Zm-11.857,10.777h-.01l5.239,3.13a30.881,30.881,0,0,0-3.415,13.177H203.5A37.334,37.334,0,0,1,207.733,131.841Zm.836,2.921a35.183,35.183,0,0,0-2.922,11.3h2.025a33.039,33.039,0,0,1,2.65-10.256Zm-5.057,15.472h6.055a31.008,31.008,0,0,0,3.405,13.177l-5.239,3.13A37.334,37.334,0,0,1,203.512,150.234Zm2.136,2.087a35.182,35.182,0,0,0,2.922,11.309l1.753-1.043a33.039,33.039,0,0,1-2.65-10.266Zm3.093,16.025,5.239-3.13a29.88,29.88,0,0,0,9.309,9.64l-3.022,5.425a36.1,36.1,0,0,1-11.525-11.935Zm2.861.7a34.057,34.057,0,0,0,7.989,8.273L220.6,175.5a31.994,31.994,0,0,1-7.254-7.512l-1.743,1.054Zm10.407,12.28v.01l3.022-5.425a28.294,28.294,0,0,0,12.724,3.537v6.26A34.15,34.15,0,0,1,222.008,181.324Zm2.821-.866a32.156,32.156,0,0,0,10.911,3.026v-2.1a30.194,30.194,0,0,1-9.9-2.744Zm14.94,5.237v-6.27a28.359,28.359,0,0,0,12.724-3.526l3.022,5.425A34.149,34.149,0,0,1,239.769,185.7Zm2.015-2.212a32.156,32.156,0,0,0,10.921-3.026l-1.007-1.815a30.194,30.194,0,0,1-9.913,2.744Zm15.474-3.2-3.022-5.425a29.88,29.88,0,0,0,9.309-9.64l5.239,3.13A36.1,36.1,0,0,1,257.259,180.281Zm.675-2.963a34.057,34.057,0,0,0,7.989-8.273L264.169,168a32,32,0,0,1-7.253,7.512Zm11.857-10.777h.01l-5.239-3.13a30.935,30.935,0,0,0,3.415-13.177h6.045A37.334,37.334,0,0,1,269.791,166.541Zm-.836-2.921a35.181,35.181,0,0,0,2.922-11.3h-2.025a33.039,33.039,0,0,1-2.65,10.256l1.753,1.043Zm5.057-15.472h-6.055a30.936,30.936,0,0,0-3.405-13.177l5.239-3.13a37.335,37.335,0,0,1,4.221,16.307Zm-2.136-2.087a35.182,35.182,0,0,0-2.922-11.309l-1.753,1.043a33.038,33.038,0,0,1,2.65,10.266h2.025Zm-3.093-16.025-5.239,3.13a29.882,29.882,0,0,0-9.309-9.64l3.022-5.425a36.1,36.1,0,0,1,11.525,11.935Zm-2.861-.7a34.057,34.057,0,0,0-7.989-8.273l-1.007,1.815a31.994,31.994,0,0,1,7.254,7.512l1.743-1.054Zm-26.153-16.661a34.149,34.149,0,0,1,15.746,4.371l-3.022,5.425a28.293,28.293,0,0,0-12.724-3.526Zm12.935,5.237a32.155,32.155,0,0,0-10.921-3.026v2.1a30.193,30.193,0,0,1,9.9,2.744l1.007-1.815Zm-13.943,44.841a13.571,13.571,0,1,1,13.1-13.563,13.336,13.336,0,0,1-13.1,13.563Zm0-2.087a11.483,11.483,0,1,0-11.082-11.476,11.284,11.284,0,0,0,11.082,11.476ZM138.563,0h57.343l-.745,1.075c.574.73,1.128,1.461,1.652,2.233L204.62.282l2.015,3.61-6.427,5.477c.373.856.725,1.721,1.038,2.608l8.281-.835,1.048,4.027L203,18.748c.151.918.262,1.847.353,2.786l8.211,1.419v4.173l-8.211,1.419c-.091.939-.2,1.878-.353,2.786l7.576,3.578-1.048,4.027-8.281-.835c-.312.887-.665,1.753-1.038,2.608l6.427,5.477L204.62,49.8l-7.808-3.026c-.524.772-1.078,1.513-1.652,2.233L200,56.025l-2.841,2.953-6.78-5.008c-.705.584-1.41,1.158-2.156,1.7l2.922,8.086-3.486,2.087-5.289-6.656c-.826.386-1.662.751-2.519,1.075l.806,8.576-3.889,1.085-3.456-7.846c-.887.156-1.783.271-2.69.365l-1.37,8.5h-4.03l-1.37-8.5c-.907-.094-1.813-.209-2.69-.365L157.7,69.921l-3.889-1.085.806-8.576c-.856-.323-1.693-.689-2.519-1.075l-5.289,6.656-3.486-2.087,2.922-8.086q-1.108-.814-2.156-1.711l-6.78,5.008-2.851-2.942L139.3,49c-.564-.73-1.118-1.461-1.642-2.233L129.848,49.8l-2.015-3.61,6.427-5.477c-.373-.855-.725-1.721-1.038-2.608l-8.281.835-1.048-4.027,7.576-3.578c-.151-.918-.262-1.847-.353-2.786l-8.211-1.419V22.952l8.211-1.419c.091-.939.2-1.878.353-2.786l-7.576-3.578,1.048-4.027,8.281.835c.312-.887.665-1.753,1.038-2.608l-6.427-5.477,2.015-3.61,7.808,3.026c.524-.772,1.078-1.513,1.652-2.233Zm2.448,0,.836,1.221a35.5,35.5,0,0,0-3.405,4.59l-7.687-2.984-.332.605,6.337,5.4a35.96,35.96,0,0,0-2.146,5.342l-8.16-.814-.181.668,7.475,3.516a36.687,36.687,0,0,0-.725,5.738l-8.1,1.419v.689l8.1,1.4a36.863,36.863,0,0,0,.725,5.738l-7.475,3.526.181.668,8.16-.814a36.052,36.052,0,0,0,2.146,5.342l-6.337,5.4.332.605,7.687-2.984a34.927,34.927,0,0,0,3.405,4.59l-4.765,6.917.473.49,6.679-4.935a34.56,34.56,0,0,0,4.433,3.526l-2.881,7.96.584.344,5.219-6.562a33.49,33.49,0,0,0,5.158,2.222l-.786,8.451.645.188,3.4-7.741a32.53,32.53,0,0,0,5.541.751l1.36,8.388h.665l1.35-8.388a33.316,33.316,0,0,0,5.541-.751l3.405,7.741.645-.188-.786-8.451a33.492,33.492,0,0,0,5.158-2.222l5.219,6.562.584-.344-2.881-7.96a34,34,0,0,0,4.433-3.526l6.679,4.935.473-.49-4.765-6.917a35.509,35.509,0,0,0,3.405-4.591l7.687,2.984.332-.605-6.337-5.4a35.958,35.958,0,0,0,2.146-5.342l8.16.814.181-.668-7.475-3.516a35.991,35.991,0,0,0,.725-5.738l8.1-1.408v-.689l-8.1-1.4a36.866,36.866,0,0,0-.725-5.738l7.475-3.526-.181-.668-8.16.814a35.954,35.954,0,0,0-2.146-5.342l6.337-5.4-.332-.605-7.687,2.984a34.927,34.927,0,0,0-3.405-4.59L193.458.01H141.011V0ZM138.17,28.169h14.255a15.41,15.41,0,0,0,11.787,12.207V55.138C150.466,53.656,139.6,42.4,138.17,28.169ZM150.833,0h13.379V9.7a15.41,15.41,0,0,0-11.787,12.207H138.17A30.439,30.439,0,0,1,150.833,0Zm19.423,55.138V40.375a15.41,15.41,0,0,0,11.787-12.207H196.3C194.868,42.4,184,53.656,170.256,55.138ZM183.635,0A30.439,30.439,0,0,1,196.3,21.909H182.043A15.41,15.41,0,0,0,170.256,9.7V0ZM140.5,30.255a27.731,27.731,0,0,0,21.7,22.473V41.993a17.483,17.483,0,0,1-11.334-11.737H140.5ZM154.762,0A28.133,28.133,0,0,0,140.5,19.823h10.367A17.483,17.483,0,0,1,162.2,8.086V0Zm17.509,52.728a27.731,27.731,0,0,0,21.7-22.473H183.605a17.483,17.483,0,0,1-11.334,11.737ZM179.706,0h-7.435V8.086a17.483,17.483,0,0,1,11.334,11.737h10.366A28.133,28.133,0,0,0,179.706,0ZM167.234,35.472A10.258,10.258,0,0,1,157.16,25.039a10.081,10.081,0,1,1,20.149,0A10.258,10.258,0,0,1,167.234,35.472Zm0-2.087a8.207,8.207,0,0,0,8.06-8.346,8.064,8.064,0,1,0-16.119,0A8.207,8.207,0,0,0,167.234,33.385Zm-39.8,183.776-10.749-8.294,6.045-10.85,12.321,5.5a23.965,23.965,0,0,1,8.462-5.07l1.562-13.782H157.16l1.562,13.782a23.966,23.966,0,0,1,8.462,5.07l12.321-5.5,6.045,10.85L174.8,217.161a25.913,25.913,0,0,1,0,10.12l10.749,8.294-6.045,10.85-12.321-5.5a23.966,23.966,0,0,1-8.462,5.07L157.16,259.78H145.071L143.509,246a23.965,23.965,0,0,1-8.462-5.07l-12.321,5.5-6.045-10.85,10.749-8.294A26.021,26.021,0,0,1,127.43,217.161Zm29.467-17.11-1.511-13.3h-8.543l-1.511,13.312a22.013,22.013,0,0,0-9.863,5.895l-11.888-5.3-4.261,7.658,10.377,8.012a23.832,23.832,0,0,0,0,11.789l-10.377,8.012,4.261,7.658,11.888-5.3a22.1,22.1,0,0,0,9.873,5.895l1.511,13.312h8.533l1.511-13.312a22.012,22.012,0,0,0,9.863-5.895l11.888,5.3,4.261-7.658-10.377-8.012a23.833,23.833,0,0,0,0-11.789l10.377-8.012-4.261-7.658-11.888,5.3a21.977,21.977,0,0,0-9.873-5.895l.01-.01Zm-5.783,34.689A12.527,12.527,0,1,1,163.2,222.221,12.31,12.31,0,0,1,151.115,234.741Zm0-2.087a10.439,10.439,0,1,0-10.074-10.433,10.258,10.258,0,0,0,10.074,10.433Zm3.556,70.652,4.292.073.514,2.014-3.677,2.285c.111.657.2,1.325.252,2l4.131,1.221v2.087l-4.131,1.221c-.05.678-.141,1.346-.252,2l3.677,2.3-.514,2-4.292.073c-.222.636-.473,1.262-.745,1.878l2.982,3.182-1.007,1.815-4.161-1.085q-.563.828-1.189,1.607l2.085,3.881-1.431,1.482-3.748-2.16c-.5.428-1.018.835-1.551,1.231l1.048,4.309-1.753,1.043-3.073-3.088c-.594.282-1.2.542-1.813.772l-.071,4.444-1.944.532-2.206-3.808c-.635.115-1.279.209-1.934.261l-1.179,4.277h-2.015l-1.179-4.277c-.655-.052-1.3-.146-1.934-.261l-2.216,3.808-1.934-.532-.071-4.444c-.615-.23-1.219-.49-1.813-.772l-3.073,3.088-1.753-1.043,1.048-4.309q-.8-.583-1.551-1.231l-3.748,2.16-1.431-1.482,2.085-3.881c-.413-.522-.806-1.054-1.189-1.607l-4.161,1.085-1.007-1.815,2.982-3.182c-.272-.616-.524-1.242-.746-1.878l-4.292-.073-.514-2.014,3.677-2.285c-.111-.657-.2-1.325-.252-2l-4.13-1.221V310.9l4.13-1.221c.05-.678.141-1.346.252-2l-3.677-2.3.514-2,4.292-.073c.222-.636.474-1.262.746-1.878l-2.982-3.182,1.007-1.815,4.161,1.085c.383-.553.776-1.085,1.189-1.607l-2.085-3.881,1.431-1.482,3.748,2.16c.5-.428,1.018-.835,1.551-1.231l-1.048-4.309,1.753-1.043,3.073,3.088c.594-.282,1.2-.542,1.813-.772l.071-4.444,1.944-.532,2.206,3.808c.635-.115,1.279-.209,1.934-.261l1.179-4.277h2.015l1.179,4.277c.655.052,1.3.146,1.934.261l2.216-3.808,1.934.532.071,4.444c.615.23,1.219.49,1.813.772l3.073-3.088,1.753,1.043-1.048,4.309c.534.4,1.048.8,1.551,1.231l3.748-2.16,1.431,1.481-2.085,3.881c.413.522.806,1.054,1.189,1.607l4.161-1.085,1.007,1.815-2.982,3.182C154.2,302.044,154.45,302.67,154.671,303.306Zm-44.861,8.638c0,12.676,9.923,22.952,22.164,22.952s22.164-10.276,22.164-22.952-9.923-22.952-22.164-22.952-22.164,10.276-22.164,22.952Zm27.312-11.33L134.1,306.06a5.85,5.85,0,0,0-4.241,0l-3.032-5.446a11.666,11.666,0,0,1,10.3,0Zm1.753,1.043a12.617,12.617,0,0,1,5.138,9.243h-6.055a6.323,6.323,0,0,0-2.116-3.8l3.022-5.446h.01Zm-13.8,0,3.042,5.446A6.323,6.323,0,0,0,126,310.9h-6.075a12.617,12.617,0,0,1,5.148-9.243Zm-5.138,11.33h6.055a6.322,6.322,0,0,0,2.116,3.8l-3.022,5.446a12.616,12.616,0,0,1-5.158-9.244h.01Zm6.891,10.287,3.022-5.446a5.85,5.85,0,0,0,4.241,0l3.032,5.446A11.665,11.665,0,0,1,126.826,323.275Zm12.049-1.043-3.042-5.446a6.322,6.322,0,0,0,2.116-3.8h6.075a12.617,12.617,0,0,1-5.148,9.244Zm-4.715-20.469a9.775,9.775,0,0,0-4.372,0l1.058,1.9a8.173,8.173,0,0,1,2.257,0l1.058-1.9Zm5.239,3.13-1.058,1.9a8.394,8.394,0,0,1,1.128,2.024h2.116a10.516,10.516,0,0,0-2.186-3.923Zm-14.85,0a10.517,10.517,0,0,0-2.186,3.923h2.116a8.394,8.394,0,0,1,1.128-2.024Zm-2.186,10.182A10.518,10.518,0,0,0,124.549,319l1.058-1.9a8.435,8.435,0,0,1-1.128-2.024Zm7.425,7.053a9.669,9.669,0,0,0,4.372,0l-1.058-1.9a8.169,8.169,0,0,1-2.257,0ZM139.4,319a10.517,10.517,0,0,0,2.186-3.923h-2.116a8.393,8.393,0,0,1-1.128,2.024Zm-11.455-7.053a4.032,4.032,0,1,1,4.03,4.173A4.1,4.1,0,0,1,127.944,311.944Zm2.015,0a2.016,2.016,0,1,0,2.015-2.087A2.052,2.052,0,0,0,129.959,311.944Zm15.111,0a4.032,4.032,0,1,1,4.03,4.173A4.1,4.1,0,0,1,145.071,311.944Zm-6.548,11.747a3.956,3.956,0,0,1,5.506,1.528,4.256,4.256,0,0,1-1.476,5.7,3.956,3.956,0,0,1-5.506-1.528A4.256,4.256,0,0,1,138.522,323.692Zm-13.1,0a4.256,4.256,0,0,1,1.476,5.7,3.956,3.956,0,0,1-5.506,1.528,4.256,4.256,0,0,1-1.476-5.7A3.956,3.956,0,0,1,125.426,323.692Zm-6.548-11.747a4.032,4.032,0,1,1-4.03-4.173A4.1,4.1,0,0,1,118.877,311.944Zm6.548-11.747a3.956,3.956,0,0,1-5.506-1.528,4.256,4.256,0,0,1,1.476-5.7A3.956,3.956,0,0,1,126.9,294.5a4.256,4.256,0,0,1-1.476,5.7Zm13.1,0a4.256,4.256,0,0,1-1.476-5.7,3.956,3.956,0,0,1,5.506-1.528,4.256,4.256,0,0,1,1.476,5.7A3.956,3.956,0,0,1,138.522,300.2Zm8.563,11.747a2.016,2.016,0,1,0,2.015-2.087A2.052,2.052,0,0,0,147.085,311.944ZM139.53,325.5a2.118,2.118,0,0,0-1,2.765,1.987,1.987,0,0,0,2.67,1.033,2.118,2.118,0,0,0,1-2.765A1.987,1.987,0,0,0,139.53,325.5Zm-15.112,0a1.977,1.977,0,0,0-2.786.642,2.134,2.134,0,0,0,.62,2.885,1.977,1.977,0,0,0,2.786-.642A2.134,2.134,0,0,0,124.418,325.5Zm-7.556-13.552a2.016,2.016,0,1,0-2.015,2.087A2.052,2.052,0,0,0,116.862,311.944Zm7.556-13.552a2.118,2.118,0,0,0,1-2.765,1.987,1.987,0,0,0-2.67-1.033,2.118,2.118,0,0,0-1,2.765A1.987,1.987,0,0,0,124.418,298.392Zm15.112,0a1.977,1.977,0,0,0,2.786-.642,2.134,2.134,0,0,0-.62-2.885,1.977,1.977,0,0,0-2.786.642,2.134,2.134,0,0,0,.62,2.885ZM244.1,234.021l-.806-8.576,5.843-1.617,3.445,7.846a56.678,56.678,0,0,1,6.971-.939l1.37-8.513h6.045l1.37,8.513a56.679,56.679,0,0,1,6.971.939l3.445-7.846,5.843,1.617-.806,8.576a57.309,57.309,0,0,1,6.5,2.8l5.289-6.656,5.239,3.13-2.922,8.075a60.991,60.991,0,0,1,5.571,4.434l6.78-5.008,4.272,4.424-4.836,7.021a62.65,62.65,0,0,1,4.282,5.769l7.8-3.026,3.022,5.425-6.427,5.477a63.424,63.424,0,0,1,2.7,6.729l8.281-.835,1.561,6.051-7.576,3.568a62.733,62.733,0,0,1,.907,7.22l8.221,1.419v6.26l-8.221,1.419a64.741,64.741,0,0,1-.907,7.22L330.9,308.5l-1.562,6.051-8.281-.835a63.407,63.407,0,0,1-2.7,6.729l6.427,5.477-3.022,5.425-7.8-3.026a62.666,62.666,0,0,1-4.282,5.769l4.836,7.021-4.272,4.423-6.78-5.008a61,61,0,0,1-5.571,4.434l2.922,8.075-5.239,3.13-5.289-6.656a58.921,58.921,0,0,1-6.5,2.8l.806,8.576-5.843,1.617-3.445-7.846a56.678,56.678,0,0,1-6.971.939l-1.37,8.513h-6.045l-1.37-8.513a58.5,58.5,0,0,1-6.971-.939l-3.445,7.846-5.843-1.617.806-8.576a58.94,58.94,0,0,1-6.5-2.8l-5.289,6.656-5.239-3.13L230,344.965a60.987,60.987,0,0,1-5.571-4.434l-6.78,5.008-4.272-4.424,4.836-7.021a62.682,62.682,0,0,1-4.282-5.769l-7.8,3.025-3.022-5.425,6.427-5.477a63.457,63.457,0,0,1-2.7-6.729l-8.281.835-1.562-6.051,7.576-3.568a66.956,66.956,0,0,1-.907-7.22l-8.221-1.419v-6.26l8.221-1.419a62.729,62.729,0,0,1,.907-7.22l-7.576-3.568,1.562-6.051,8.281.835a64.336,64.336,0,0,1,2.7-6.729l-6.427-5.477,3.022-5.425,7.8,3.026a62.66,62.66,0,0,1,4.282-5.769l-4.836-7.021,4.272-4.424,6.78,5.008A61,61,0,0,1,230,241.366l-2.922-8.075,5.239-3.13,5.289,6.656A58.928,58.928,0,0,1,244.1,234.021Zm2.136,1.461a56.823,56.823,0,0,0-9.148,3.933l-5.229-6.573-2.317,1.388,2.881,7.981a58.95,58.95,0,0,0-7.848,6.239l-6.7-4.956-1.894,1.961,4.785,6.938a60.565,60.565,0,0,0-6.025,8.127l-7.707-2.984-1.34,2.4,6.347,5.425a61.343,61.343,0,0,0-3.8,9.463l-8.18-.824-.7,2.692,7.485,3.526a62.548,62.548,0,0,0-1.279,10.151l-8.12,1.408v2.775l8.12,1.408a62.2,62.2,0,0,0,1.279,10.151l-7.485,3.526.705,2.692,8.17-.824a61.179,61.179,0,0,0,3.8,9.473l-6.347,5.415,1.34,2.4,7.707-2.984a60.573,60.573,0,0,0,6.024,8.127l-4.785,6.938,1.894,1.961,6.7-4.956a61.037,61.037,0,0,0,7.848,6.239l-2.881,7.981,2.317,1.388,5.239-6.573a56.333,56.333,0,0,0,9.137,3.933l-.8,8.471,2.6.72,3.405-7.752a56.082,56.082,0,0,0,9.8,1.325l1.36,8.409h2.68l1.36-8.409a56.212,56.212,0,0,0,9.8-1.325l3.405,7.752,2.6-.73-.8-8.461a56.821,56.821,0,0,0,9.147-3.933l5.229,6.573,2.317-1.388-2.881-7.981a58.959,58.959,0,0,0,7.848-6.239l6.7,4.956,1.894-1.961-4.785-6.938a62.706,62.706,0,0,0,6.024-8.127l7.707,2.984,1.34-2.4-6.347-5.425a60.653,60.653,0,0,0,3.8-9.463l8.18.824.7-2.692-7.485-3.526a62.553,62.553,0,0,0,1.279-10.151l8.12-1.408v-2.775l-8.12-1.408a62.59,62.59,0,0,0-1.279-10.151l7.485-3.526L327.819,274l-8.17.824a61.18,61.18,0,0,0-3.8-9.473l6.347-5.415-1.34-2.4-7.707,2.984a60.571,60.571,0,0,0-6.024-8.127l4.785-6.938-1.894-1.961-6.7,4.956a58.962,58.962,0,0,0-7.848-6.239l2.881-7.981-2.317-1.388-5.239,6.573a56.983,56.983,0,0,0-9.137-3.933l.8-8.472-2.6-.72-3.405,7.752a56.526,56.526,0,0,0-9.8-1.325l-1.36-8.409h-2.68l-1.36,8.409a56.218,56.218,0,0,0-9.8,1.325l-3.405-7.752-2.6.73.8,8.461Zm4.614,52.269a15.046,15.046,0,0,0,0,10.84l-34.132,20.4a57.154,57.154,0,0,1,0-51.643l34.132,20.4Zm2.015-3.62-34.122-20.407a53.039,53.039,0,0,1,43.189-25.811v40.793a14,14,0,0,0-9.067,5.425Zm0,18.07a14,14,0,0,0,9.067,5.425v40.793a53.039,53.039,0,0,1-43.189-25.811Zm13.1,5.425a14,14,0,0,0,9.067-5.425l34.122,20.407a53.039,53.039,0,0,1-43.189,25.811V307.625Zm11.082-9.035a15.047,15.047,0,0,0,0-10.85l34.132-20.4a57.154,57.154,0,0,1,0,51.643Zm-2.015-14.46a14,14,0,0,0-9.067-5.425V237.912a53.039,53.039,0,0,1,43.189,25.811L275.03,284.13Zm-57.464-13.876a55.021,55.021,0,0,0,0,45.821l30.848-18.445a17.211,17.211,0,0,1,0-8.931l-30.848-18.445Zm4.03-7.23,30.848,18.445a16.08,16.08,0,0,1,7.475-4.476v-36.88A51.011,51.011,0,0,0,221.6,263.024Zm0,60.281a51.011,51.011,0,0,0,38.323,22.911v-36.88a15.981,15.981,0,0,1-7.475-4.476L221.6,323.306Zm46.382,22.911A51.011,51.011,0,0,0,306.3,323.306L275.453,304.86a16.08,16.08,0,0,1-7.475,4.476v36.88Zm42.353-30.141a55.022,55.022,0,0,0,0-45.821L279.482,288.7a17.211,17.211,0,0,1,0,8.931Zm-4.03-53.051a51.011,51.011,0,0,0-38.323-22.911v36.88a16.08,16.08,0,0,1,7.475,4.476Zm-42.353,39.53a9.4,9.4,0,1,1,9.067-9.39A9.232,9.232,0,0,1,263.948,302.555Zm0-2.087a7.307,7.307,0,1,0-7.052-7.3,7.181,7.181,0,0,0,7.052,7.3ZM0,253.144l2.781.417,4.785,2.368a39.555,39.555,0,0,1,2.871-3.547l-3.083-4.465-1.7-5.331,3.093-2.692,4.775,2.66,3.717,3.923a37.934,37.934,0,0,1,3.869-2.316l-1.431-5.289.171-5.613,3.788-1.429,3.627,4.194,2.186,5a35.714,35.714,0,0,1,4.4-.8l.4-5.477,2.015-5.216H40.3l2.015,5.216.4,5.477a35.708,35.708,0,0,1,4.4.8l2.2-5.008,3.617-4.173,3.788,1.419.171,5.613-1.431,5.29a39.445,39.445,0,0,1,3.869,2.316l3.717-3.923,4.775-2.66,3.093,2.692-1.7,5.331-3.083,4.476A39.547,39.547,0,0,1,69,255.94l4.785-2.379,5.37-.8,2.015,3.61-3.355,4.413-4.372,3.109a38.92,38.92,0,0,1,1.531,4.351l5.269-.543,5.309,1.148.705,4.111-4.614,2.963L76.5,277.286a41.7,41.7,0,0,1,0,4.632l5.138,1.356,4.614,2.973-.705,4.1L80.242,291.5l-5.269-.522a38.748,38.748,0,0,1-1.531,4.34l4.372,3.109,3.355,4.413-2.015,3.61-5.37-.8L69,303.275a39.558,39.558,0,0,1-2.871,3.547l3.083,4.465,1.7,5.331-3.093,2.692-4.775-2.66-3.717-3.923a37.94,37.94,0,0,1-3.869,2.316l1.431,5.29-.171,5.613-3.788,1.429L49.3,323.181l-2.186-5a35.717,35.717,0,0,1-4.4.8l-.4,5.477L40.3,329.68h-4.03l-2.015-5.216-.4-5.477a36.951,36.951,0,0,1-4.4-.8l-2.2,5.008-3.617,4.173-3.788-1.419-.171-5.613,1.431-5.29a36.744,36.744,0,0,1-3.869-2.316L13.52,316.65l-4.775,2.66-3.093-2.692,1.7-5.331,3.083-4.476a39.566,39.566,0,0,1-2.871-3.547l-4.785,2.379L0,306.06v-8.524l3.123-2.222a40.274,40.274,0,0,1-1.531-4.35L0,291.131v-9.2l.06-.01a41.7,41.7,0,0,1,0-4.632l-.06-.01v-9.2l1.592.167a41.679,41.679,0,0,1,1.531-4.351L0,261.658v-8.513ZM0,255.1v4.058l5.662,4.006a38.152,38.152,0,0,0-2.569,7.324L0,270.171v4.956l2.216.584a39.342,39.342,0,0,0,0,7.783L0,284.078v4.956l3.093-.313a37.577,37.577,0,0,0,2.569,7.324L0,300.051v4.058l1.773-.271,6.458-3.2a37.136,37.136,0,0,0,4.836,5.957L8.9,312.623l-1.018,3.2L9.107,316.9l2.871-1.586,5.017-5.3a36.453,36.453,0,0,0,6.5,3.891l-1.914,7.136.1,3.37,1.511.574,2.166-2.5,2.962-6.76a35.045,35.045,0,0,0,7.395,1.356l.554,7.387,1.209,3.13h1.612l1.209-3.13.554-7.4a35.045,35.045,0,0,0,7.395-1.346l2.962,6.75,2.166,2.5,1.511-.563.1-3.37-1.914-7.136a35.939,35.939,0,0,0,6.5-3.892l5.017,5.3,2.871,1.586,1.229-1.075-1.007-3.2-4.181-6.03a37.057,37.057,0,0,0,4.836-5.947l6.448,3.192,3.224.48.806-1.44-2.015-2.65L70.9,296.045a37.462,37.462,0,0,0,2.569-7.324l7.123.73,3.183-.689.282-1.648-2.77-1.774-6.931-1.847a38.639,38.639,0,0,0,0-7.783l6.931-1.847,2.77-1.774-.282-1.648-3.183-.689-7.123.73A38.153,38.153,0,0,0,70.9,263.16l5.9-4.173,2.015-2.66-.806-1.44-3.224.48-6.458,3.2a37.137,37.137,0,0,0-4.836-5.957l4.171-6.03,1.018-3.2L67.458,242.3l-2.871,1.586-5.017,5.3a36.454,36.454,0,0,0-6.5-3.891l1.914-7.136-.1-3.37-1.511-.574-2.166,2.5-2.962,6.76a35.051,35.051,0,0,0-7.395-1.356l-.554-7.386-1.209-3.13H37.477l-1.209,3.13-.554,7.4a34.456,34.456,0,0,0-7.395,1.346l-2.962-6.75-2.166-2.5-1.511.563-.1,3.37,1.914,7.136A35.946,35.946,0,0,0,17,249.19l-5.017-5.3L9.107,242.3l-1.229,1.075,1.007,3.2,4.181,6.03a37.454,37.454,0,0,0-4.836,5.947l-6.448-3.192L0,255.085Zm38.283,28.68a4.176,4.176,0,1,1,4.03-4.173A4.1,4.1,0,0,1,38.283,283.776Zm0-2.087a2.088,2.088,0,1,0-2.015-2.087A2.052,2.052,0,0,0,38.283,281.689Zm0-27.126a4.176,4.176,0,1,1,4.03-4.173A4.1,4.1,0,0,1,38.283,254.563ZM62.461,279.6a4.032,4.032,0,1,1,4.03,4.173A4.1,4.1,0,0,1,62.461,279.6ZM38.283,304.641a4.176,4.176,0,1,1-4.03,4.173A4.1,4.1,0,0,1,38.283,304.641ZM14.1,279.6a4.1,4.1,0,0,1-4.03,4.173,4.176,4.176,0,0,1,0-8.346A4.1,4.1,0,0,1,14.1,279.6Zm24.178-27.126a2.088,2.088,0,1,0-2.015-2.087A2.052,2.052,0,0,0,38.283,252.477ZM64.476,279.6a2.016,2.016,0,1,0,2.015-2.087A2.052,2.052,0,0,0,64.476,279.6ZM38.283,306.728a2.088,2.088,0,1,0,2.015,2.087A2.052,2.052,0,0,0,38.283,306.728ZM12.089,279.6a2.016,2.016,0,1,0-2.015,2.087A2.052,2.052,0,0,0,12.089,279.6Zm3.4,23.61a12.837,12.837,0,0,1-.791-17.689,11.8,11.8,0,0,1,17.081-.819,12.837,12.837,0,0,1,.791,17.689,11.8,11.8,0,0,1-17.081.819Zm0-47.219a11.8,11.8,0,0,1,17.081-.819,12.836,12.836,0,0,1,.791,17.689,11.8,11.8,0,0,1-17.081.819,12.837,12.837,0,0,1-.791-17.689Zm45.6,0a12.837,12.837,0,0,1,.791,17.689,11.8,11.8,0,0,1-17.081.819A12.836,12.836,0,0,1,44,256.812a11.8,11.8,0,0,1,17.081-.819Zm0,47.219A11.8,11.8,0,0,1,44,304.031a12.837,12.837,0,0,1-.791-17.689,11.8,11.8,0,0,1,17.081-.819,12.837,12.837,0,0,1,.791,17.689ZM45.405,272.226a9.835,9.835,0,0,0,14.25.256,10.7,10.7,0,0,0,.247-14.757,9.835,9.835,0,0,0-14.25-.256,10.7,10.7,0,0,0-.247,14.757Zm0,14.752a10.7,10.7,0,0,0-.247,14.757,9.835,9.835,0,0,0,14.25.256,10.7,10.7,0,0,0,.247-14.757A9.835,9.835,0,0,0,45.405,286.978Zm-14.245,0a9.835,9.835,0,0,0-14.25-.256,10.7,10.7,0,0,0-.247,14.757,9.835,9.835,0,0,0,14.25.256,10.7,10.7,0,0,0,.247-14.757Zm0-14.752a10.7,10.7,0,0,0,.247-14.757,9.835,9.835,0,0,0-14.25-.256,10.7,10.7,0,0,0-.247,14.757A9.835,9.835,0,0,0,31.16,272.226ZM263.777,16.2l-.081-4.361,1.944-.543,2.055,3.829a28.608,28.608,0,0,1,3.284-.449l1.028-4.246h2.015l1.028,4.246a26.218,26.218,0,0,1,3.284.449l2.055-3.829,1.944.543-.071,4.371a26.692,26.692,0,0,1,3.063,1.315l2.932-3.14,1.753,1.043-1.169,4.2a30.4,30.4,0,0,1,2.629,2.087l3.627-2.243,1.421,1.471-2.176,3.756a27.107,27.107,0,0,1,2.015,2.713l4.07-1.2,1.007,1.815L298.4,31.069a28.756,28.756,0,0,1,1.269,3.172l4.231-.073.5,2.014-3.687,2.128a31.642,31.642,0,0,1,.433,3.4l4.1,1.064v2.087l-4.1,1.064a29.012,29.012,0,0,1-.433,3.4l3.7,2.128-.524,2.014-4.221-.073a29.607,29.607,0,0,1-1.269,3.172l3.032,3.036-1.007,1.815-4.06-1.21a31.249,31.249,0,0,1-2.015,2.723l2.166,3.756L295.1,68.158,291.471,65.9a26.386,26.386,0,0,1-2.619,2.087l1.159,4.215-1.753,1.043-2.932-3.14a26.69,26.69,0,0,1-3.063,1.315l.07,4.382-1.944.522-2.055-3.818a28.61,28.61,0,0,1-3.284.449L274.022,77.2h-2.015l-1.028-4.246a26.225,26.225,0,0,1-3.284-.449l-2.055,3.829L263.7,75.8l.07-4.371a27.5,27.5,0,0,1-3.063-1.315l-2.932,3.14-1.753-1.043,1.169-4.2a32.023,32.023,0,0,1-2.629-2.087l-3.627,2.243-1.42-1.471,2.176-3.756a27.1,27.1,0,0,1-2.015-2.713l-4.07,1.2L244.6,59.6l3.032-3.036a28.73,28.73,0,0,1-1.269-3.172l-4.231.073-.5-2.014,3.687-2.128a31.65,31.65,0,0,1-.433-3.4l-4.1-1.064V42.775l4.1-1.064a29.013,29.013,0,0,1,.433-3.4l-3.7-2.128.524-2.014,4.221.073a28.731,28.731,0,0,1,1.269-3.172L244.6,28.033l1.007-1.815,4.06,1.21a31.235,31.235,0,0,1,2.015-2.723l-2.166-3.756,1.42-1.471,3.627,2.254a26.378,26.378,0,0,1,2.619-2.087l-1.159-4.215,1.753-1.043,2.932,3.14a26.686,26.686,0,0,1,3.063-1.315l.01-.01Zm9.238,54.742c14.466,0,26.193-12.145,26.193-27.126s-11.727-27.126-26.193-27.126-26.193,12.145-26.193,27.126S258.549,70.944,273.015,70.944Zm0-9.39c-9.459,0-17.126-7.941-17.126-17.736s7.668-17.736,17.126-17.736,17.126,7.941,17.126,17.736S282.473,61.554,273.015,61.554Zm0-2.087a15.387,15.387,0,0,0,15.111-15.649,15.121,15.121,0,1,0-30.223,0A15.388,15.388,0,0,0,273.015,59.468Zm0-8.346a7.308,7.308,0,1,1,7.052-7.3A7.181,7.181,0,0,1,273.015,51.121Zm0-2.087a5.22,5.22,0,1,0-5.037-5.216A5.129,5.129,0,0,0,273.015,49.035Zm0-14.606a2.088,2.088,0,1,1,2.015-2.087A2.052,2.052,0,0,1,273.015,34.429Zm9.067,9.39A2.016,2.016,0,1,1,284.1,45.9,2.052,2.052,0,0,1,282.082,43.818Zm-9.067,9.39A2.088,2.088,0,1,1,271,55.294,2.052,2.052,0,0,1,273.015,53.208Zm-9.067-9.39a2.016,2.016,0,1,1-2.015-2.087A2.052,2.052,0,0,1,263.948,43.818Zm48.286,56.119-1.813-4.079,1.642-1.231,3.173,3.046a7.46,7.46,0,0,1,1.259-.417l.846-4.4h2.015l.846,4.392a8.525,8.525,0,0,1,1.259.417l3.173-3.026,1.632,1.221-1.813,4.069a7.532,7.532,0,0,1,.786,1.106l4.292-.522.625,1.982-3.778,2.191a7.755,7.755,0,0,1,0,1.367l3.778,2.191-.625,1.982-4.292-.522a7.89,7.89,0,0,1-.776,1.106l1.813,4.079-1.642,1.231-3.173-3.046a7.458,7.458,0,0,1-1.259.417l-.846,4.4h-2.015L316.5,113.5a8.524,8.524,0,0,1-1.259-.417l-3.173,3.026-1.632-1.221,1.813-4.069a8.374,8.374,0,0,1-.786-1.106l-4.292.522-.625-1.982,3.778-2.191a8.747,8.747,0,0,1,0-1.367l-3.778-2.191.625-1.982,4.292.522A7.9,7.9,0,0,1,312.234,99.937Zm6.115,10.652a5.22,5.22,0,1,0-5.037-5.216A5.129,5.129,0,0,0,318.349,110.589ZM76.293,186.958l-.6-2.191,1.753-1.043,1.521,1.638a9.734,9.734,0,0,1,2.116-.574l.524-2.212h2.015l.534,2.212a9.7,9.7,0,0,1,2.106.574l1.521-1.628,1.753,1.043-.6,2.191a10.191,10.191,0,0,1,1.531,1.586l2.116-.626,1.007,1.815-1.572,1.575a11.223,11.223,0,0,1,.554,2.191l2.136.542v2.087l-2.136.553a10.623,10.623,0,0,1-.554,2.18l1.572,1.575-1.007,1.815-2.116-.626a10.192,10.192,0,0,1-1.531,1.586l.6,2.191-1.753,1.043-1.521-1.628a10.246,10.246,0,0,1-2.116.574l-.524,2.212H81.6l-.534-2.212a9.857,9.857,0,0,1-2.106-.574l-1.521,1.628-1.753-1.043.6-2.191a10.192,10.192,0,0,1-1.531-1.586l-2.116.626-1.007-1.815,1.572-1.575a10.657,10.657,0,0,1-.554-2.191l-2.136-.543v-2.087l2.136-.553a10.62,10.62,0,0,1,.554-2.18l-1.572-1.575,1.007-1.815,2.116.626a10.192,10.192,0,0,1,1.531-1.586v-.01Zm2.166.981A8.25,8.25,0,0,0,75.7,190.8l-.141.261a8.564,8.564,0,0,0,0,8.075l.141.261a8.249,8.249,0,0,0,2.76,2.859l.252.146a7.779,7.779,0,0,0,7.8,0l.252-.146a8.25,8.25,0,0,0,2.76-2.859l.141-.261a8.563,8.563,0,0,0,0-8.075l-.141-.261a8.25,8.25,0,0,0-2.76-2.859l-.252-.146a7.779,7.779,0,0,0-7.8,0Zm4.151,13.417a6.264,6.264,0,1,1,6.045-6.26A6.155,6.155,0,0,1,82.61,201.355Zm0-2.087a4.176,4.176,0,1,0-4.03-4.173A4.1,4.1,0,0,0,82.61,199.269Zm280.067,3.318-3.828,5.842-7.233-3.662,2.619-8.419a32.634,32.634,0,0,1-3.093-2.567l-7.324,4.538-5.077-6.489L344.6,185.3a32.707,32.707,0,0,1-1.713-3.672l-8.513.762-1.813-8.138,8.009-3.2a35.129,35.129,0,0,1,0-4.069l-8.009-3.2,1.813-8.138,8.513.762a33.611,33.611,0,0,1,1.713-3.672L338.74,146.2l5.077-6.489,7.324,4.538a33.543,33.543,0,0,1,3.093-2.567l-2.619-8.419,7.243-3.652,3.818,5.832v67.146Zm0-3.683V139.123l-4.493-6.865-4.131,2.087,2.549,8.211a30.576,30.576,0,0,0-5.168,4.278l-7.133-4.424-2.9,3.7,5.692,6.354a31.656,31.656,0,0,0-2.841,6.114l-8.3-.73-1.038,4.653,7.787,3.119a32.769,32.769,0,0,0,0,6.781l-7.787,3.13,1.038,4.643,8.3-.73a31.654,31.654,0,0,0,2.841,6.114l-5.692,6.364,2.9,3.693,7.133-4.413a30.572,30.572,0,0,0,5.168,4.267l-2.559,8.2,4.141,2.087,4.493-6.854Zm0-53.8v5.957l-3.586-3.964A24.857,24.857,0,0,1,362.676,145.1Zm0,23.662L348.4,175.69a26.665,26.665,0,0,1,8.442-26.9l5.833,10.955Zm0,24.163a25.788,25.788,0,0,1-13.419-14.5l13.419-2.66Zm0-45.529-.393.209.393.417V147.4Zm0,19.082v-2.452l-6.347-11.935a24.46,24.46,0,0,0-6.478,20.615l12.825-6.228Zm0,24.152V177.871l-10.548,2.1a23.673,23.673,0,0,0,10.548,10.662ZM0,135.44l1.007,1.523a31.107,31.107,0,0,1,3.828-.9l1.209-8.785H14.1l1.209,8.785a30.615,30.615,0,0,1,3.828.9l4.836-7.366,7.233,3.662-2.619,8.419a33.536,33.536,0,0,1,3.093,2.566l7.324-4.538,5.077,6.489-5.863,6.531a32.7,32.7,0,0,1,1.713,3.672l8.513-.762,1.813,8.138-8.009,3.2a34.27,34.27,0,0,1,0,4.069l8.009,3.2-1.813,8.138-8.513-.762a35.5,35.5,0,0,1-1.713,3.672l5.863,6.531-5.077,6.489-7.324-4.538a33.548,33.548,0,0,1-3.093,2.567l2.619,8.419-7.243,3.652-4.816-7.355a31.49,31.49,0,0,1-3.828.9L14.1,210.745H6.045l-1.209-8.784a31.112,31.112,0,0,1-3.828-.9L0,202.587V135.44Zm0,3.683V198.9l.2-.3a28.434,28.434,0,0,0,6.387,1.5l1.179,8.555h4.614L13.56,200.1a29.1,29.1,0,0,0,6.4-1.5l4.685,7.167,4.13-2.087-2.549-8.211a30.574,30.574,0,0,0,5.168-4.278l7.133,4.424,2.9-3.7-5.692-6.354a31.336,31.336,0,0,0,2.841-6.114l8.3.73,1.038-4.653L40.126,172.4a33.163,33.163,0,0,0,0-6.781l7.787-3.13-1.038-4.643-8.3.73a31.656,31.656,0,0,0-2.841-6.114l5.692-6.364-2.9-3.693-7.133,4.413a30.569,30.569,0,0,0-5.168-4.267l2.559-8.2-4.141-2.087-4.685,7.157a29.17,29.17,0,0,0-6.4-1.5l-1.179-8.555H7.757l-1.179,8.555a29.1,29.1,0,0,0-6.4,1.5l-.191-.3ZM34.424,175.69l-16.381-7.95a8.491,8.491,0,0,0-.806-2.546l8.745-16.4a26.577,26.577,0,0,1,8.442,26.9Zm-.856,2.744a25.288,25.288,0,0,1-22.1,16.62l2.247-18.591A8.381,8.381,0,0,0,15.8,174.9ZM0,145.1a24.456,24.456,0,0,1,23.735,2L11.364,160.771a7.845,7.845,0,0,0-2.579,0L0,151.069Zm0,23.662v-9.024l2.9,5.456a8.387,8.387,0,0,0-.8,2.546L0,168.763Zm0,24.163V175.763l4.352-.866a8.2,8.2,0,0,0,2.085,1.565l2.247,18.591A24.352,24.352,0,0,1,0,192.926Zm10.074-30.172a6.264,6.264,0,0,1,0,12.52,6.264,6.264,0,0,1,0-12.52Zm0,2.087a4.176,4.176,0,0,0,0,8.346,4.176,4.176,0,0,0,0-8.346ZM0,147.4v.626l9.55,10.569a8.785,8.785,0,0,1,1.048,0l9.943-11A22.535,22.535,0,0,0,0,147.4Zm0,19.082.343-.167c.091-.355.2-.7.322-1.033L0,164.026v2.452ZM0,190.63a22.582,22.582,0,0,0,6.387,2.076l-1.813-14.95q-.431-.294-.836-.626L0,177.86Zm13.762,2.076a23.275,23.275,0,0,0,16.925-12.739L16.411,177.13a9.951,9.951,0,0,1-.846.626l-1.8,14.95Zm19.212-20A24.46,24.46,0,0,0,26.506,152.1l-7.022,13.177c.121.334.232.678.322,1.033ZM361.457,0h-1.219l1.511,3.422a49.562,49.562,0,0,0-5.843,6.051l-9.45-4.486-1.662,2.358,7.052,7.908a50.6,50.6,0,0,0-3.768,7.647l-10.316-1.252-.866,2.775,9.057,5.269a51.629,51.629,0,0,0-1.289,8.472l-10.2,2.107v2.921l10.2,2.107a51.813,51.813,0,0,0,1.29,8.472l-9.067,5.269.876,2.775,10.316-1.252a51.924,51.924,0,0,0,3.768,7.647l-7.052,7.908,1.662,2.358,9.45-4.486a49.56,49.56,0,0,0,5.843,6.051l-4.332,9.786,2.277,1.721,2.982-2.848v2.775l-2.861,2.733-4.886-3.672,4.392-9.911a51.624,51.624,0,0,1-3.979-4.121l-9.571,4.549-3.546-5.06,7.133-8.012a52.7,52.7,0,0,1-2.559-5.2l-10.457,1.262L334.478,58.1l9.178-5.342A53.781,53.781,0,0,1,342.78,47l-10.326-2.139V38.6l10.326-2.139a53.85,53.85,0,0,1,.876-5.759l-9.178-5.342,1.864-5.947L346.8,20.678a51.362,51.362,0,0,1,2.559-5.2L342.226,7.47l3.546-5.06,9.571,4.549a51.634,51.634,0,0,1,3.979-4.121L358.062,0Zm1.219,54.982-6.528,3.9a43.252,43.252,0,0,1,0-34.3l6.528,3.9v26.5Zm0-40.855v4.716l-2.488-1.492C360.964,16.234,361.8,15.159,362.676,14.126Zm0,55.211a40.483,40.483,0,0,1-2.488-3.234l2.488-1.481Zm0-16.766V30.892l-5.541-3.318a40.867,40.867,0,0,0,0,28.315Zm0,202.524-1.451-.209-.806,1.44,2.015,2.65.242.177Zm0,15.076-4.03-.417-3.183.689-.282,1.648,2.77,1.774,4.725,1.252Zm0,13.907-4.735,1.252-2.76,1.784.282,1.648,3.183.689,4.03-.417Zm0,15.973-.242.177-2.015,2.65.806,1.44,1.451-.209Zm0,6.009-2.589.386-2.015-3.61,3.355-4.413,1.249-.887v8.524Zm0-14.93-3.677.376-5.309-1.148-.705-4.111,4.614-2.963,5.077-1.356Zm0-13.855L357.6,275.92l-4.614-2.963.705-4.1L359,267.709l3.677.365Zm0-15.608-1.249-.887-3.355-4.413,2.015-3.61,2.589.386v8.524Z" transform="translate(570.821 1538.413)" fill="#fff"/>
  </g>
</svg>
